# xmcd
#
# Track frame offsets: 
#        150
#        26686
#        46162
#        67064
#        91286
#        113675
#        137909
#        158722
#        178297
#        207882
#
# Disc length: 3076 seconds
#
# Revision: 1
# Processed by: cddbd v1.5.1PL2 Copyright (c) Steve Scherf et al.
# Submitted via: ExactAudioCopy v0.95b3
#
DISCID=890c020a
DTITLE=Nachhatar Gill - Pyar Ho Jauga
DYEAR=2005
DGENRE=Bhangra
TTITLE0=Vaadeyan Ton Mukri
TTITLE1=Chake Jaam
TTITLE2=Pyar Ho Jauga
TTITLE3=Nain Naina Naal
TTITLE4=Zulfan Wale Naag
TTITLE5=Aakhde Sharabi
TTITLE6=Tera Na Lagna
TTITLE7=Pee Pee Pee
TTITLE8=Tutte Phullan Kolon
TTITLE9=Suhe Suhe Cheere Waliya
EXTD=
EXTT0=
EXTT1=
EXTT2=
EXTT3=
EXTT4=
EXTT5=
EXTT6=
EXTT7=
EXTT8=
EXTT9=
PLAYORDER=
